<svg width="200" height="60" viewBox="0 0 200 60" fill="none" xmlns="http://www.w3.org/2000/svg">
  <!-- Icon background -->
  <circle cx="30" cy="30" r="25" fill="#16a34a"/>
  
  <!-- Leaf icon -->
  <path d="M20 15c6 0 12 3 12 12 0 3-1.5 6-4.5 7.5-1.5 1.5-4.5 1.5-6 0-1.5-1.5-1.5-4.5 0-6 1.5-1.5 3-1.5 4.5 0M20 15c0 6-3 12-12 12-3 0-6-1.5-7.5-4.5-1.5-1.5-1.5-4.5 0-6 1.5-1.5 4.5-1.5 6 0" 
        stroke="white" 
        stroke-width="2.5" 
        fill="none" 
        stroke-linecap="round" 
        stroke-linejoin="round"/>
  
  <!-- Small circles for berries -->
  <circle cx="38" cy="20" r="2.5" fill="white" opacity="0.9"/>
  <circle cx="42" cy="25" r="1.5" fill="white" opacity="0.7"/>
  
  <!-- Text "FoodShare" -->
  <text x="70" y="25" font-family="Arial, sans-serif" font-size="18" font-weight="bold" fill="#1f2937">FoodShare</text>
  <text x="70" y="40" font-family="Arial, sans-serif" font-size="10" fill="#6b7280">Platform</text>
  
  <!-- Tagline -->
  <text x="70" y="52" font-family="Arial, sans-serif" font-size="8" fill="#16a34a">Reducing Food Waste Together</text>
</svg>
