<svg width="32" height="32" viewBox="0 0 32 32" fill="none" xmlns="http://www.w3.org/2000/svg">
  <!-- Background circle -->
  <circle cx="16" cy="16" r="16" fill="#16a34a"/>
  
  <!-- Leaf icon -->
  <path d="M12 8c4 0 8 2 8 8 0 2-1 4-3 5-1 1-3 1-4 0-1-1-1-3 0-4 1-1 2-1 3 0M12 8c0 4-2 8-8 8-2 0-4-1-5-3-1-1-1-3 0-4 1-1 3-1 4 0" 
        stroke="white" 
        stroke-width="2" 
        fill="none" 
        stroke-linecap="round" 
        stroke-linejoin="round"/>
  
  <!-- Small circle for berry/fruit -->
  <circle cx="20" cy="12" r="2" fill="white" opacity="0.8"/>
</svg>
